<svg xmlns="http://www.w3.org/2000/svg" viewBox="1202.4 629.141 17 14.1"><defs><style>.a{fill:#336bb4;}</style></defs><g transform="translate(700 432.041)"><path class="a" d="M518.9,211.2h-2a.5.5,0,0,1,0-1h1.5v-1.5a.5.5,0,0,1,1,0v2A.472.472,0,0,1,518.9,211.2Z"/><path class="a" d="M512.9,211.2h-4a.5.5,0,0,1,0-1h4a.5.5,0,0,1,0,1Z"/><path class="a" d="M504.9,211.2h-2a.472.472,0,0,1-.5-.5v-2a.5.5,0,0,1,1,0v1.5h1.5a.5.5,0,0,1,0,1Z"/><path class="a" d="M502.9,206.2a.472.472,0,0,1-.5-.5v-3a.5.5,0,0,1,1,0v3A.536.536,0,0,1,502.9,206.2Z"/><path class="a" d="M502.9,200.1a.472.472,0,0,1-.5-.5v-2a.472.472,0,0,1,.5-.5h2a.5.5,0,0,1,0,1h-1.5v1.5A.472.472,0,0,1,502.9,200.1Z"/><path class="a" d="M512.9,198.1h-4a.5.5,0,0,1,0-1h4a.5.5,0,0,1,0,1Z"/><path class="a" d="M518.9,200.1a.472.472,0,0,1-.5-.5v-1.5h-1.5a.5.5,0,0,1,0-1h2a.472.472,0,0,1,.5.5v2A.472.472,0,0,1,518.9,200.1Z"/><path class="a" d="M518.9,206.2a.472.472,0,0,1-.5-.5v-3a.5.5,0,0,1,1,0v3A.536.536,0,0,1,518.9,206.2Z"/><path class="a" d="M508.7,202.4a1.231,1.231,0,0,0-1,.5,2.588,2.588,0,0,0-.4,1.4c0,1.2.5,1.9,1.4,1.9a3.926,3.926,0,0,0,1.4-.3v1a4.013,4.013,0,0,1-1.5.3,2.489,2.489,0,0,1-1.9-.7,3.281,3.281,0,0,1-.6-2.1,3.34,3.34,0,0,1,.3-1.5,2.189,2.189,0,0,1,.9-1,3.408,3.408,0,0,1,3,.1l-.4,1-.6-.3A.6.6,0,0,0,508.7,202.4Z"/><path class="a" d="M515.8,207.1h-1.3l-1.5-2.3-.5.4v2h-1.2v-5.6h1.2v2.5l.5-.7,1.5-1.9h1.3l-1.9,2.5Z"/></g></svg>