<svg xmlns="http://www.w3.org/2000/svg" viewBox="1264.1 582.166 12.1 13.775"><defs><style>.a{fill:#336bb4;}</style></defs><g transform="translate(759 385.041)"><path class="a" d="M511.1,210.9c-.1,0-.2,0-.2-.1l-5.6-3.2a.4.4,0,0,1-.2-.4v-6.4a.52.52,0,0,1,.2-.4l5.6-3.2a.454.454,0,0,1,.5,0l5.6,3.2a.4.4,0,0,1,.2.4v6.4a.519.519,0,0,1-.2.4l-5.6,3.2A.367.367,0,0,1,511.1,210.9Zm-5.1-4,5.1,2.9,5.1-2.9V201l-5.1-2.9L506,201Z"/><path class="a" d="M513.6,202.6h-5a.5.5,0,0,1,0-1h5a.5.5,0,0,1,0,1Z"/><path class="a" d="M513.6,206.4h-5a.5.5,0,0,1,0-1h5a.5.5,0,0,1,0,1Z"/><path class="a" d="M512.2,204.5h-3.6a.5.5,0,0,1,0-1h3.6a.5.5,0,0,1,0,1Z"/></g></svg>