<svg xmlns="http://www.w3.org/2000/svg" viewBox="0 0 15.708 15.928"><defs><style>.a{fill:#336bb4;}</style></defs><path class="a" d="M266,200.4c1.4-1.4,2.3-3.1,2.2-4.4a.43.43,0,0,0-.4-.4c-1.3-.2-3.1.7-4.7,2.1a7.3,7.3,0,1,0-3.3,13.8,3.611,3.611,0,0,0,2.7-.8,2.817,2.817,0,0,0,.3-2.2c-.1-.6-.2-1.1.1-1.3.3-.3.7-.3,1.4-.2a2.619,2.619,0,0,0,2.1-.4,3.136,3.136,0,0,0,.7-2.4,7.042,7.042,0,0,0-1.1-3.8Zm-4.8,1.8c.9-3,4.2-5.5,6-5.7C266.9,198.3,264.2,201.5,261.2,202.2Zm4.5,3.7a1.778,1.778,0,0,1-1.3.1,2.264,2.264,0,0,0-2.2.5,2.435,2.435,0,0,0-.4,2.2c.1.6.2,1.1-.1,1.4a2.628,2.628,0,0,1-1.9.5,6.3,6.3,0,0,1,0-12.6,6.963,6.963,0,0,1,2.5.5,8.653,8.653,0,0,0-2.1,3.7,1.826,1.826,0,0,0-2.3.2,4.811,4.811,0,0,0-.9,1.1,2.752,2.752,0,0,1-1.5,1.5c-.2.1-.3.2-.3.4a.551.551,0,0,0,.2.5,4.065,4.065,0,0,0,2.6,1,4,4,0,0,0,2.6-1,2.4,2.4,0,0,0,.6-2.5,9.167,9.167,0,0,0,4.1-2.2,6.5,6.5,0,0,1,.8,3.1A2.364,2.364,0,0,1,265.7,205.9Zm-5.7-2.7a1.207,1.207,0,0,1-.1,1.8,2.776,2.776,0,0,1-3.2.4,5.267,5.267,0,0,0,1.2-1.5,3.49,3.49,0,0,1,.6-.9A1.084,1.084,0,0,1,260,203.2Z" transform="translate(-252.5 -195.572)"/></svg>