<svg xmlns="http://www.w3.org/2000/svg" viewBox="1035.9 434.041 17 17"><defs><style>.a{fill:#336bb4;}</style></defs><g transform="translate(701 434.041)"><path class="a" d="M343.2,4.3h-4.5a.472.472,0,0,1-.5-.5.472.472,0,0,1,.5-.5h4.5a.472.472,0,0,1,.5.5A.472.472,0,0,1,343.2,4.3Z"/><path class="a" d="M344.4,9h-5.7a.5.5,0,0,1,0-1h5.7a.5.5,0,0,1,0,1Z"/><path class="a" d="M340.8,6.6h-2.1a.5.5,0,0,1,0-1h2.1a.5.5,0,0,1,0,1Z"/><path class="a" d="M341.7,11.4h-3a.5.5,0,0,1,0-1h3a.472.472,0,0,1,.5.5A.536.536,0,0,1,341.7,11.4Z"/><path class="a" d="M339.6,13.7h-.9a.5.5,0,0,1,0-1h.9a.5.5,0,0,1,0,1Z"/><path class="a" d="M348.2,4.3h-2.9a.472.472,0,0,1-.5-.5.472.472,0,0,1,.5-.5h2.9a.472.472,0,0,1,.5.5A.536.536,0,0,1,348.2,4.3Z"/><path class="a" d="M348.2,9h-1.7a.5.5,0,0,1,0-1h1.7a.472.472,0,0,1,.5.5A.536.536,0,0,1,348.2,9Z"/><path class="a" d="M348.2,6.6h-5.3a.5.5,0,0,1,0-1h5.3a.472.472,0,0,1,.5.5A.536.536,0,0,1,348.2,6.6Z"/><path class="a" d="M348.2,11.4h-4.4a.5.5,0,0,1,0-1h4.4a.472.472,0,0,1,.5.5A.536.536,0,0,1,348.2,11.4Z"/><path class="a" d="M348.2,13.7h-6.5a.5.5,0,0,1,0-1h6.5a.472.472,0,0,1,.5.5A.536.536,0,0,1,348.2,13.7Z"/><path class="a" d="M351.4,17h-16a.472.472,0,0,1-.5-.5V.5a.472.472,0,0,1,.5-.5h16a.472.472,0,0,1,.5.5v16A.472.472,0,0,1,351.4,17Zm-15.5-1h15V1h-15Z"/></g></svg>