<svg xmlns="http://www.w3.org/2000/svg" viewBox="784.7 434.041 17 17"><defs><style>.a{fill:#336bb4;}</style></defs><g transform="translate(701 434.041)"><path class="a" d="M100.2,9h-16a.472.472,0,0,1-.5-.5V.5a.536.536,0,0,1,.5-.5h16a.472.472,0,0,1,.5.5v8A.472.472,0,0,1,100.2,9ZM84.7,8h15V1h-15Z"/><path class="a" d="M98.4,17H85.9a.472.472,0,0,1-.5-.5v-8a.472.472,0,0,1,.5-.5H98.4a.472.472,0,0,1,.5.5v8A.472.472,0,0,1,98.4,17Zm-12-1H97.9V9H86.4Z"/><path class="a" d="M88.8,6.4a.6.6,0,0,1-.4-.1L86.5,4.4a.495.495,0,0,1,.7-.7l1.6,1.6,1.6-1.6a.495.495,0,0,1,.7.7L89.2,6.3A.756.756,0,0,1,88.8,6.4Z"/></g></svg>