<svg xmlns="http://www.w3.org/2000/svg" viewBox="951.1 432 13.8 17.041"><defs><style>.a{fill:#336bb4;}</style></defs><g transform="translate(700 432.041)"><path class="a" d="M264.4,17H251.6a.472.472,0,0,1-.5-.5V.5a.472.472,0,0,1,.5-.5h8c.1,0,.3.1.4.1l4.8,4.8c.1.1.1.2.1.4V16.5A.472.472,0,0,1,264.4,17Zm-12.2-1H264V5.5L259.5,1h-7.3Z"/><path class="a" d="M264.4,5.8h-4.8a.472.472,0,0,1-.5-.5V.5a.55.55,0,0,1,.3-.5.44.44,0,0,1,.5.1l4.8,4.8c.1.1.2.4.1.5S264.6,5.8,264.4,5.8Zm-4.2-1h3l-3-3Z"/><path class="a" d="M261.8,8.8h-7.1a.5.5,0,0,1,0-1h7.1a.472.472,0,0,1,.5.5A.536.536,0,0,1,261.8,8.8Z"/><path class="a" d="M256.4,6.1h-1.7a.472.472,0,0,1-.5-.5.472.472,0,0,1,.5-.5h1.7a.472.472,0,0,1,.5.5A.536.536,0,0,1,256.4,6.1Z"/><path class="a" d="M261.7,11.5h-7.1a.5.5,0,0,1,0-1h7.1a.5.5,0,0,1,0,1Z"/><path class="a" d="M261.8,14.2h-7.1a.5.5,0,0,1,0-1h7.1a.5.5,0,0,1,0,1Z"/></g></svg>