<svg xmlns="http://www.w3.org/2000/svg" viewBox="701 434 17 17"><defs><style>.a{fill:#336bb4;}</style></defs><path class="a" d="M16.5,4H15.1V.5a.472.472,0,0,0-.5-.5H2.1a.536.536,0,0,0-.5.5V4H.5a.472.472,0,0,0-.5.5v8a.472.472,0,0,0,.5.5H1.6v3.5a.472.472,0,0,0,.5.5H14.6a.472.472,0,0,0,.5-.5V13h1.4a.472.472,0,0,0,.5-.5v-8A.472.472,0,0,0,16.5,4ZM2.6,1H14.1V4H2.6ZM14.1,16H2.6V13H14.1ZM16,12H1V5H16ZM7.3,7.2a.483.483,0,0,1,0,.7L5.4,9.8A.52.52,0,0,1,5,10c-.2,0-.3,0-.4-.1l-1.8-2a.495.495,0,0,1,.7-.7L5,8.8,6.6,7.2A.483.483,0,0,1,7.3,7.2Z" transform="translate(701 434)"/></svg>