<svg xmlns="http://www.w3.org/2000/svg" viewBox="784.7 499.041 17.039 17"><defs><style>.a{fill:#336bb4;}</style></defs><g transform="translate(701 434.041)"><path class="a" d="M100.2,82h-16a.472.472,0,0,1-.5-.5v-16a.472.472,0,0,1,.5-.5h16a.472.472,0,0,1,.5.5v16A.472.472,0,0,1,100.2,82ZM84.7,81h15V66h-15Z"/><path class="a" d="M100.2,78.7h-16a.5.5,0,0,1,0-1h16a.5.5,0,0,1,0,1Z"/><path class="a" d="M88.4,72.3A2.3,2.3,0,1,1,90.7,70,2.263,2.263,0,0,1,88.4,72.3Zm0-3.7a1.3,1.3,0,1,0,1.3,1.3A1.261,1.261,0,0,0,88.4,68.6Z"/><path class="a" d="M100.2,78.7a.55.55,0,0,1-.5-.3L96,70.5l-2.7,6.2c-.1.2-.2.3-.4.3a.55.55,0,0,1-.5-.3l-1.5-2.6-3.2,4.4a.5.5,0,1,1-.8-.6l3.7-5a.758.758,0,0,1,.4-.2.52.52,0,0,1,.4.2l1.4,2.4L95.5,69a.55.55,0,0,1,.5-.3.683.683,0,0,1,.5.3l4.2,8.9a.663.663,0,0,1-.2.7A.367.367,0,0,1,100.2,78.7Z"/></g></svg>