<svg xmlns="http://www.w3.org/2000/svg" viewBox="1121 633.4 14.204 8.8"><defs><style>.a{fill:#336bb4;}</style></defs><path class="a" d="M429.8,199.4a5.123,5.123,0,0,0-2.7.9,4.388,4.388,0,0,0-2.7-.9,4.4,4.4,0,0,0,0,8.8,4.388,4.388,0,0,0,2.7-.9,4.188,4.188,0,0,0,2.7.9,4.439,4.439,0,0,0,4.4-4.4A4.313,4.313,0,0,0,429.8,199.4Zm-8.6,4.4a3.222,3.222,0,0,1,3.2-3.2,2.792,2.792,0,0,1,1.8.6,4.206,4.206,0,0,0,0,5.2,3.077,3.077,0,0,1-1.9.6A3.138,3.138,0,0,1,421.2,203.8Zm8.6,3.3a3.1,3.1,0,0,1-2.2-.9.1.1,0,0,0-.1-.1.1.1,0,0,1-.1-.1,3.1,3.1,0,0,1-.9-2.2,3.222,3.222,0,0,1,3.2-3.2,3.29,3.29,0,0,1,3.2,3.2A3.044,3.044,0,0,1,429.8,207.1Zm1.8-3.3a1.7,1.7,0,1,1-1.7-1.7A1.752,1.752,0,0,1,431.6,203.8Z" transform="translate(701 434)"/></svg>