<svg xmlns="http://www.w3.org/2000/svg" viewBox="951.225 502.441 16.975 10"><defs><style>.a{fill:#336bb4;}</style></defs><g transform="translate(700 432.041)"><path class="a" d="M267.7,80.4H255.3a.52.52,0,0,1-.4-.2l-3.6-4.5a.637.637,0,0,1,0-.6l3.6-4.5a.52.52,0,0,1,.4-.2h12.4a.472.472,0,0,1,.5.5v9A.472.472,0,0,1,267.7,80.4Zm-12.2-1h11.7v-8H255.5l-3.2,4Z"/><path class="a" d="M256.5,77.2a1.8,1.8,0,1,1,1.8-1.8A1.793,1.793,0,0,1,256.5,77.2Zm0-2.6a.8.8,0,1,0,.8.8A.86.86,0,0,0,256.5,74.6Z"/><path class="a" d="M265,74.7h-5.1a.5.5,0,0,1,0-1H265a.5.5,0,0,1,0,1Z"/><path class="a" d="M265,77.1h-5.1a.5.5,0,0,1,0-1H265a.5.5,0,0,1,0,1Z"/></g></svg>