<svg xmlns="http://www.w3.org/2000/svg" viewBox="1119.7 500.441 17 13.7"><defs><style>.a{fill:#336bb4;}</style></defs><g transform="translate(701 434.041)"><path class="a" d="M435.2,80.1h-16a.472.472,0,0,1-.5-.5V66.9a.472.472,0,0,1,.5-.5h16a.5.5,0,0,1,0,1H419.7V79.1h15.5a.472.472,0,0,1,.5.5A.536.536,0,0,1,435.2,80.1Z"/><path class="a" d="M424,75.8h-1.2V71.5l-.4.4-.6.5-.6-.7,1.8-1.4h.9v5.5Z"/><path class="a" d="M429.8,75.8H426V75l1.4-1.4a5.059,5.059,0,0,0,.8-.9,1.38,1.38,0,0,1,.3-.4.6.6,0,0,0,.1-.4.684.684,0,0,0-.7-.7,1.268,1.268,0,0,0-.6.1,2.092,2.092,0,0,0-.6.4l-.6-.7c.3-.2.5-.4.7-.5a1.421,1.421,0,0,1,.6-.2,1.483,1.483,0,0,1,.7-.1,2.92,2.92,0,0,1,.9.2,1.024,1.024,0,0,1,.6.5,1.884,1.884,0,0,1,.2.8,1.483,1.483,0,0,1-.1.7,5.739,5.739,0,0,1-.4.7,9.112,9.112,0,0,1-1,1l-.7.7v.1H430v.9Z"/><path class="a" d="M434.3,71.6a1.613,1.613,0,0,1-.3.9,1.346,1.346,0,0,1-.9.5h0a2.321,2.321,0,0,1,1,.4,1.222,1.222,0,0,1,.3.9,1.426,1.426,0,0,1-.6,1.2,2.537,2.537,0,0,1-1.6.4,4.145,4.145,0,0,1-1.6-.3v-1a4.876,4.876,0,0,0,.7.3,2.2,2.2,0,0,0,.8.1,1.292,1.292,0,0,0,.8-.2.6.6,0,0,0,.3-.6.462.462,0,0,0-.3-.5,2.151,2.151,0,0,0-1-.2h-.4v-.9h.4a2,2,0,0,0,.9-.2.6.6,0,0,0,.3-.6c0-.4-.3-.6-.8-.6a.749.749,0,0,0-.5.1l-.6.3-.5-.8a2.73,2.73,0,0,1,1.8-.5,2.269,2.269,0,0,1,1.3.3A1.388,1.388,0,0,1,434.3,71.6Z"/></g></svg>