<svg xmlns="http://www.w3.org/2000/svg" viewBox="1118.7 562.041 17 17"><defs><style>.a{fill:#336bb4;}</style></defs><g transform="translate(700 432.041)"><path class="a" d="M435.2,147h-16a.472.472,0,0,1-.5-.5V132.8a.472.472,0,0,1,.5-.5h16a.472.472,0,0,1,.5.5v13.7A.536.536,0,0,1,435.2,147Zm-15.5-1h15V133.3h-15Z"/><path class="a" d="M422.7,135.6a.472.472,0,0,1-.5-.5v-4.6a.5.5,0,1,1,1,0v4.6A.472.472,0,0,1,422.7,135.6Z"/><path class="a" d="M431.6,135.6a.472.472,0,0,1-.5-.5v-4.6a.5.5,0,0,1,1,0v4.6A.472.472,0,0,1,431.6,135.6Z"/><path class="a" d="M423.9,143.1H423v-3.5a2.2,2.2,0,0,0-.1-.8c0-.3-.1-.5-.1-.8a1.072,1.072,0,0,0-.2-.6l.9-.3c.1.2.1.5.2.7s.1.5.2.8a.661.661,0,0,0,.7.6.684.684,0,0,0,.7-.7l-.2-1.1.8-.3.2,1.4v.4a.758.758,0,0,1-.2.4c-.1.1-.2.3-.3.4a.764.764,0,0,1-.5.2.637.637,0,0,1-.6,0c-.2-.1-.4-.1-.6-.2v3.4Z"/><path class="a" d="M432.2,141.7a1.222,1.222,0,0,1-.3.9,2.178,2.178,0,0,1-.8.5,2.768,2.768,0,0,1-.9.1,1.613,1.613,0,0,1-.9-.3,4.179,4.179,0,0,1-1,.4,1.412,1.412,0,0,1-.9-.1.9.9,0,0,1-.6-.6,1.644,1.644,0,0,1-.2-1,1.268,1.268,0,0,1,.1-.6,1.08,1.08,0,0,1,.3-.7,2.361,2.361,0,0,1,.6-.9,9,9,0,0,1,1-1.2l-.4-.2.6-.7C431.1,139,432.2,140.5,432.2,141.7Zm-.9-.2a2.353,2.353,0,0,0-.2-.8,4.173,4.173,0,0,0-.6-.8,4.62,4.62,0,0,0-.7-.7,2.652,2.652,0,0,0-.6-.5,7.116,7.116,0,0,0-1.2,1.5,2.421,2.421,0,0,0-.4,1.3.749.749,0,0,0,.1.5l.3.3a.3.3,0,0,0,.4,0,.758.758,0,0,0,.4-.2.52.52,0,0,0,.2-.4v-.6h.9a.637.637,0,0,1,0,.6c0,.2-.1.3-.1.4.1.1.3.1.5.2a.9.9,0,0,0,.5-.1c.1-.1.3-.1.4-.3A.6.6,0,0,0,431.3,141.5Z"/></g></svg>