<svg xmlns="http://www.w3.org/2000/svg" viewBox="0 0 16.3 15.9"><defs><style>.a{fill:#336bb4;}</style></defs><path class="a" d="M178.8,198.9v-1.3c0-1.4-2.9-2-5.6-2s-5.6.6-5.6,2v11.9c0,1.4,2.9,2,5.6,2,2.4,0,5.1-.5,5.5-1.6a5.585,5.585,0,0,0,5.2-5.6A5.529,5.529,0,0,0,178.8,198.9Zm-10.3-1.3c.1-.3,1.6-1,4.6-1s4.5.7,4.6,1c-.1.3-1.7,1-4.6,1s-4.5-.7-4.6-1Zm9.3,1.2h0l-.1.1C177.7,198.8,177.7,198.8,177.8,198.8Zm-9.3,0a12.237,12.237,0,0,0,4.6.8,22.818,22.818,0,0,0,2.7-.2,5.7,5.7,0,0,0-2.4,2.2h-.3c-3,0-4.5-.7-4.6-1Zm0,3a11.692,11.692,0,0,0,4.5.8,5.663,5.663,0,0,0-.3,1.8v.2c-2.7-.1-4.1-.7-4.2-1Zm0,4.8v-1.7a10.642,10.642,0,0,0,4.3.8,7.218,7.218,0,0,0,.9,2h-.6c-2.9,0-4.5-.8-4.6-1.1Zm4.6,4c-3,0-4.5-.7-4.6-1v-1.7a12.237,12.237,0,0,0,4.6.8,6.149,6.149,0,0,0,1.4-.1,5.586,5.586,0,0,0,2.8,1.3A10.149,10.149,0,0,1,173.1,210.6Zm5.2-1.6a4.6,4.6,0,1,1,4.6-4.6A4.653,4.653,0,0,1,178.3,209Zm1.6-4.7a.975.975,0,0,1,.4.9,1.473,1.473,0,0,1-1.5,1.5v.7h-.9v-.7a5.257,5.257,0,0,1-1.7-.4l.2-.9a4.54,4.54,0,0,0,1.8.4c.6,0,.9-.2.9-.5,0-.2-.1-.3-.2-.3a.367.367,0,0,0-.3-.1c-.1,0-.3-.1-.4-.1s-.3-.1-.4-.1a3.337,3.337,0,0,1-1.2-.5,1.268,1.268,0,0,1-.4-.9c0-.8.6-1.3,1.5-1.5V201h.9v.8a3.194,3.194,0,0,1,1.4.3l-.2.9a6.093,6.093,0,0,0-1.7-.3c-.5,0-.8.2-.8.5,0,.2.1.3.4.4.1,0,.4.1.8.2A5.305,5.305,0,0,1,179.9,204.3Z" transform="translate(-167.6 -195.6)"/></svg>