<svg xmlns="http://www.w3.org/2000/svg" viewBox="1010.2 519.341 17 9.2"><defs><style>.a{fill:#336bb4;}.b{fill:#2c6bb4;}</style></defs><g transform="translate(759 385.041)"><path class="a" d="M263.6,143.5h-7.8a4.6,4.6,0,0,1,0-9.2h7.8a4.6,4.6,0,1,1,0,9.2Zm-7.8-8.3a3.6,3.6,0,0,0,0,7.2h7.8a3.6,3.6,0,1,0,0-7.2Z"/><circle class="b" cx="2.1" cy="2.1" r="2.1" transform="translate(261 136.7)"/><path class="a" d="M263.1,141.5a2.582,2.582,0,0,1-2.6-2.6,2.6,2.6,0,1,1,2.6,2.6Zm0-4.3a1.6,1.6,0,1,0,1.6,1.6A1.58,1.58,0,0,0,263.1,137.2Z"/></g></svg>