<svg xmlns="http://www.w3.org/2000/svg" viewBox="785 629 17.1 16.9"><defs><style>.a{fill:#336bb4;}</style></defs><path class="a" d="M16.5,4.8H15.3V.5a.472.472,0,0,0-.5-.5H2.2a.472.472,0,0,0-.5.5V4.8H.5a.472.472,0,0,0-.5.5v6.3a.472.472,0,0,0,.5.5H1.7v4.3a.472.472,0,0,0,.5.5H14.9a.472.472,0,0,0,.5-.5V12.1h1.2a.472.472,0,0,0,.5-.5V5.3A.634.634,0,0,0,16.5,4.8ZM2.7,1H14.4V4.8H11V3.4h1.5a.472.472,0,0,0,.5-.5.472.472,0,0,0-.5-.5h-4a.472.472,0,0,0-.5.5.472.472,0,0,0,.5.5H10V4.8H2.7ZM1,5.8h9v5.3H1ZM14.3,15.9H2.7V12.1H10v1.4H8.5a.5.5,0,0,0,0,1h4a.5.5,0,0,0,0-1H11V12.1h3.3ZM16,11.1H11V5.8h5Z" transform="translate(785 629)"/></svg>