<svg xmlns="http://www.w3.org/2000/svg" viewBox="701 564.041 17 17"><defs><style>.a{fill:#336bb4;}</style></defs><g transform="translate(701 434.041)"><path class="a" d="M16.5,147H.5a.472.472,0,0,1-.5-.5V133.4a.472.472,0,0,1,.5-.5h16a.472.472,0,0,1,.5.5v13.1A.472.472,0,0,1,16.5,147ZM1,146H16V133.9H1Z"/><path class="a" d="M12.1,142.9a.472.472,0,0,1-.5-.5V130.5a.5.5,0,0,1,1,0v11.9A.536.536,0,0,1,12.1,142.9Z"/><path class="a" d="M14.1,131h-4a.5.5,0,1,1,0-1h4a.5.5,0,0,1,0,1Z"/><path class="a" d="M14.1,142.9h-4a.5.5,0,0,1,0-1h4a.5.5,0,0,1,0,1Z"/></g></svg>