<svg xmlns="http://www.w3.org/2000/svg" viewBox="784.7 565.641 17 12.9"><defs><style>.a{fill:#336bb4;}</style></defs><g transform="translate(701 434.041)"><path class="a" d="M100.2,141.6h-16a.472.472,0,0,1-.5-.5v-6a.472.472,0,0,1,.5-.5h16a.472.472,0,0,1,.5.5v6A.536.536,0,0,1,100.2,141.6Zm-15.5-1h15v-5h-15Z"/><path class="a" d="M95.9,144.5a.472.472,0,0,1-.5-.5V132.1a.5.5,0,0,1,1,0V144A.536.536,0,0,1,95.9,144.5Z"/><path class="a" d="M97.9,132.6h-4a.5.5,0,0,1,0-1h4a.472.472,0,0,1,.5.5A.536.536,0,0,1,97.9,132.6Z"/><path class="a" d="M97.9,144.5h-4a.5.5,0,0,1,0-1h4a.472.472,0,0,1,.5.5A.536.536,0,0,1,97.9,144.5Z"/></g></svg>